HIERARCHY
ROOT Hips
{
	OFFSET 0.000000 0.000000 0.000000
	CHANNELS 6 Xposition Yposition Zposition Zrotation Yrotation Xrotation 
	JOINT LowerBack
	{
		OFFSET 0.000000 0.000000 0.000000
		CHANNELS 3 Zrotation Yrotation Xrotation
		JOINT Spine
		{
			OFFSET 0.028270 2.035590 -0.193380
			CHANNELS 3 Zrotation Yrotation Xrotation
			JOINT Spine1
			{
				OFFSET 0.056720 2.048850 -0.042750
				CHANNELS 3 Zrotation Yrotation Xrotation
				JOINT Neck
				{
					OFFSET 0.000000 0.000000 0.000000
					CHANNELS 3 Zrotation Yrotation Xrotation
					JOINT Neck1
					{
						OFFSET -0.054170 1.746240 0.172020
						CHANNELS 3 Zrotation Yrotation Xrotation
						JOINT Head
						{
							OFFSET 0.104070 1.761360 -0.123970
							CHANNELS 3 Zrotation Yrotation Xrotation
							End Site
							{
								OFFSET 0.000000 0.000000 0.000000
							}
						}
					}
				}
				JOINT LeftShoulder
				{
					OFFSET 0.000000 0.000000 0.000000
					CHANNELS 3 Zrotation Yrotation Xrotation
					JOINT LeftArm
					{
						OFFSET 3.362410 1.200890 -0.311210
						CHANNELS 3 Zrotation Yrotation Xrotation
						JOINT LeftForeArm
						{
							OFFSET 4.983000 -0.000000 -0.000000
							CHANNELS 3 Zrotation Yrotation Xrotation
							JOINT LeftHand
							{
								OFFSET 3.483560 -0.000000 -0.000000
								CHANNELS 3 Zrotation Yrotation Xrotation
								JOINT LeftFingerBase
								{
									OFFSET 0.000000 0.000000 0.000000
									CHANNELS 3 Zrotation Yrotation Xrotation
									JOINT LeftHandIndex1
									{
										OFFSET 0.715260 -0.000000 -0.000000
										CHANNELS 3 Zrotation Yrotation Xrotation
										End Site
										{
											OFFSET 0.000000 0.000000 0.000000
										}
									}
								}
								JOINT LThumb
								{
									OFFSET 0.000000 0.000000 0.000000
									CHANNELS 3 Zrotation Yrotation Xrotation
									End Site
									{
										OFFSET 0.000000 0.000000 0.000000
									}
								}
							}
						}
					}
				}
				JOINT RightShoulder
				{
					OFFSET 0.000000 0.000000 0.000000
					CHANNELS 3 Zrotation Yrotation Xrotation
					JOINT RightArm
					{
						OFFSET -3.136600 1.374050 -0.404650
						CHANNELS 3 Zrotation Yrotation Xrotation
						JOINT RightForeArm
						{
							OFFSET -5.241900 -0.000000 -0.000000
							CHANNELS 3 Zrotation Yrotation Xrotation
							JOINT RightHand
							{
								OFFSET -3.444170 -0.000000 -0.000000
								CHANNELS 3 Zrotation Yrotation Xrotation
								JOINT RightFingerBase
								{
									OFFSET 0.000000 0.000000 0.000000
									CHANNELS 3 Zrotation Yrotation Xrotation
									JOINT RightHandIndex1
									{
										OFFSET -0.622530 -0.000000 -0.000000
										CHANNELS 3 Zrotation Yrotation Xrotation
										End Site
										{
											OFFSET 0.000000 0.000000 0.000000
										}
									}
								}
								JOINT RThumb
								{
									OFFSET 0.000000 0.000000 0.000000
									CHANNELS 3 Zrotation Yrotation Xrotation
									End Site
									{
										OFFSET 0.000000 0.000000 0.000000
									}
								}
							}
						}
					}
				}
			}
		}
	}
}
}
MOTION
Frames: 10
Frame Time: 0.008333
0.873979 17.992157 -0.049738 116.255643 88.551255 137.088685 -0.810289 -0.799836 -1.838922 -1.065547 -0.817564 -3.624828 -7.572427 -0.688512 -1.625724 9.779839 -9.427506 -5.819700 -2.575808 -0.224228 0.512928 0.000000 0.000000 0.000000 6.492167 12.345255 -0.859218 -72.336037 32.833772 21.720595 179.729989 -62.470720 179.956255 5.082586 -6.895783 -0.324606 0.033019 0.495043 0.000000 0.000000 0.000000 0.000000 0.000000 0.000000 0.000000 3.897677 -2.351372 -2.417971 89.764975 12.795205 35.855705 178.781077 70.360849 -179.982185 1.586090 13.552289 0.210278 -0.049020 -0.898600 -0.000000 0.000000 0.000000 0.000000 0.000000 0.000000 0.000000 
1.117178 17.934754 -0.045049 117.655003 88.716217 138.251291 -0.704320 -0.814330 -1.648454 -1.027740 -0.829184 -3.581453 -7.492907 -0.698426 -1.599174 9.687541 -9.424388 -5.883830 -2.579460 -0.223234 0.492752 0.000000 0.000000 0.000000 6.389177 12.455704 -0.821650 -72.809688 32.297045 21.593663 179.732471 -62.655979 179.956140 5.068163 -6.855996 -0.322088 0.032989 0.498431 0.000000 0.000000 0.000000 0.000000 0.000000 0.000000 0.000000 3.880951 -2.355279 -2.416849 89.538926 12.559963 35.710539 178.833178 70.739345 -179.983922 1.455978 13.504462 0.192747 -0.046966 -0.889405 -0.000000 0.000000 0.000000 0.000000 0.000000 0.000000 0.000000 
1.359167 17.865653 -0.039613 118.713475 88.865699 139.097408 -0.620173 -0.827093 -1.489720 -0.995185 -0.839032 -3.540197 -7.416912 -0.706142 -1.559216 9.597883 -9.435459 -5.951403 -2.587612 -0.222533 0.471365 0.000000 0.000000 0.000000 6.303876 12.576897 -0.787289 -73.258209 31.636102 21.546782 179.738623 -62.928899 179.956110 5.048243 -6.818785 -0.319365 0.032558 0.502046 0.000000 0.000000 0.000000 0.000000 0.000000 0.000000 0.000000 3.893954 -2.379902 -2.415562 89.299484 12.310308 35.519161 178.882718 71.130916 -179.985146 1.394239 13.416930 0.183598 -0.047082 -0.878729 0.000000 0.000000 0.000000 0.000000 0.000000 0.000000 0.000000 
1.600479 17.784539 -0.032926 119.050398 88.983996 139.256021 -0.574279 -0.842568 -1.375394 -0.971618 -0.851110 -3.503936 -7.348380 -0.715781 -1.508481 9.518554 -9.457230 -6.022252 -2.601069 -0.222218 0.449025 0.000000 0.000000 0.000000 6.235810 12.704480 -0.757296 -73.659748 30.868341 21.585135 179.749535 -63.280518 179.956177 5.025799 -6.786106 -0.316635 0.031497 0.505833 0.000000 0.000000 0.000000 0.000000 0.000000 0.000000 0.000000 3.947798 -2.421149 -2.412204 89.050229 12.033854 35.276548 178.929245 71.532613 -179.985771 1.412567 13.294665 0.184431 -0.049655 -0.866902 -0.000000 0.000000 0.000000 0.000000 0.000000 0.000000 0.000000 
1.841491 17.691127 -0.024712 118.461595 89.066613 138.525002 -0.569915 -0.863555 -1.309213 -0.958093 -0.868243 -3.475131 -7.290214 -0.730397 -1.453518 9.453250 -9.481676 -6.093702 -2.620041 -0.222366 0.426729 0.000000 0.000000 0.000000 6.171281 12.827482 -0.732085 -73.994235 30.018604 21.704829 179.767013 -63.700502 179.956366 4.990139 -6.774849 -0.314097 0.030021 0.510199 0.000000 0.000000 0.000000 0.000000 0.000000 0.000000 0.000000 4.045634 -2.469524 -2.404982 88.793544 11.712666 34.974108 178.974110 71.946053 -179.985862 1.505113 13.140492 0.194147 -0.054547 -0.854101 -0.000000 0.000000 0.000000 0.000000 0.000000 0.000000 0.000000 
2.082636 17.585744 -0.014463 116.172473 89.086149 136.138901 -0.635653 -0.895328 -1.301320 -0.960891 -0.894241 -3.455800 -7.245203 -0.753837 -1.395935 9.413328 -9.504623 -6.165242 -2.646125 -0.223126 0.404710 0.000000 0.000000 0.000000 6.109170 12.941854 -0.712291 -74.244923 29.090425 21.906529 179.791066 -64.197847 179.956620 4.977895 -6.765453 -0.313240 0.026757 0.514312 0.000000 0.000000 0.000000 0.000000 0.000000 0.000000 0.000000 4.210017 -2.522532 -2.391278 88.520019 11.333695 34.611312 179.018960 72.379742 -179.985610 1.647506 12.979898 0.209658 -0.060950 -0.841133 -0.000000 0.000000 0.000000 0.000000 0.000000 0.000000 0.000000 
2.323955 17.469011 -0.002157 111.949968 89.043157 131.860056 -0.772969 -0.937316 -1.345719 -0.980625 -0.928074 -3.447623 -7.214556 -0.785444 -1.346492 9.399003 -9.512661 -6.230290 -2.679803 -0.224636 0.384942 0.000000 0.000000 0.000000 6.024194 13.027945 -0.697319 -74.397894 28.110502 22.172182 179.822945 -64.761299 179.956937 4.981433 -6.777060 -0.314465 0.021878 0.518632 0.000000 0.000000 0.000000 0.000000 0.000000 0.000000 0.000000 4.442118 -2.564094 -2.368757 88.227858 10.872791 34.177583 179.066801 72.846454 -179.985257 1.810248 12.817600 0.227269 -0.068094 -0.828078 -0.000000 0.000000 0.000000 0.000000 0.000000 0.000000 0.000000 
2.565457 17.342174 0.012262 105.576440 88.932191 125.470457 -0.994696 -0.985055 -1.440254 -1.019772 -0.964019 -3.449628 -7.197025 -0.819747 -1.302291 9.416908 -9.509323 -6.291199 -2.720741 -0.226831 0.366709 0.000000 0.000000 0.000000 5.916159 13.095737 -0.687904 -74.453850 27.059912 22.503937 179.860615 -65.418186 179.957172 5.057852 -6.775550 -0.319758 0.013478 0.521889 -0.000000 0.000000 0.000000 0.000000 0.000000 0.000000 0.000000 4.754701 -2.598966 -2.337034 87.902784 10.330021 33.685869 179.119935 73.365823 -179.985148 1.944531 12.685670 0.241392 -0.074422 -0.815652 -0.000000 0.000000 0.000000 0.000000 0.000000 0.000000 0.000000 
2.806893 17.207226 0.028655 97.185263 88.757809 117.097570 -1.294968 -1.031024 -1.574733 -1.076903 -0.994100 -3.463638 -7.192996 -0.849544 -1.277742 9.463678 -9.478251 -6.337693 -2.769609 -0.229898 0.352897 0.000000 0.000000 0.000000 5.752762 13.118221 -0.683216 -74.404549 25.973213 22.871789 179.903673 -66.144944 179.957273 5.204878 -6.774796 -0.329920 0.001795 0.524410 0.000000 0.000000 0.000000 0.000000 0.000000 0.000000 0.000000 5.144995 -2.605216 -2.293375 87.544167 9.680246 33.125273 179.180711 73.954784 -179.985531 2.017332 12.580815 0.248336 -0.079087 -0.803637 0.000000 0.000000 0.000000 0.000000 0.000000 0.000000 0.000000 
3.047709 17.066702 0.046726 87.547489 88.534385 107.503955 -1.650358 -1.063718 -1.736796 -1.146238 -1.007418 -3.485161 -7.198121 -0.864205 -1.261502 9.540897 -9.436837 -6.378180 -2.823728 -0.233478 0.340928 0.000000 0.000000 0.000000 5.542519 13.125073 -0.683955 -74.268652 24.803408 23.286990 179.948837 -66.980027 179.957057 5.476142 -6.735166 -0.346242 -0.014745 0.524941 0.000000 0.000000 0.000000 0.000000 0.000000 0.000000 0.000000 5.611923 -2.602384 -2.240635 87.140303 8.946049 32.524499 179.249709 74.634878 -179.986680 1.983840 12.529119 0.243409 -0.080626 -0.792332 -0.000000 0.000000 0.000000 0.000000 0.000000 0.000000 0.000000 
